<?xml version="1.0" encoding="utf-8"?>
<!-- Generator: Adobe Illustrator 24.0.0, SVG Export Plug-In . SVG Version: 6.00 Build 0)  -->
<svg version="1.1" id="레이어_1" xmlns="http://www.w3.org/2000/svg" xmlns:xlink="http://www.w3.org/1999/xlink" x="0px"
	 y="0px" width="16px" height="15.37px" viewBox="0 0 16 15.37" enable-background="new 0 0 16 15.37" xml:space="preserve">
<path fill="#FFC83D" stroke="#000000" stroke-linejoin="round" stroke-miterlimit="10" d="M14.83,5.35h-4.65L8.81,0.98
	C8.7,0.62,8.37,0.45,8.08,0.51c-0.29-0.06-0.62,0.1-0.74,0.47L5.98,5.35H1.17c-0.6,0-0.9,0.66-0.47,1.04l4.04,2.9l-1.48,4.72
	c-0.18,0.57,0.37,1.05,0.86,0.76l3.95-2.97l3.95,2.97c0.49,0.3,1.04-0.18,0.86-0.76l-1.5-4.81L15.3,6.4
	C15.73,6.01,15.43,5.35,14.83,5.35z"/>
</svg>
