<?xml version="1.0" encoding="utf-8"?>
<!-- Generator: Adobe Illustrator 16.0.0, SVG Export Plug-In . SVG Version: 6.00 Build 0)  -->
<!DOCTYPE svg PUBLIC "-//W3C//DTD SVG 1.1//EN" "http://www.w3.org/Graphics/SVG/1.1/DTD/svg11.dtd">
<svg version="1.1" id="Layer_1" xmlns="http://www.w3.org/2000/svg" xmlns:xlink="http://www.w3.org/1999/xlink" x="0px" y="0px"
	 width="38px" height="29px" viewBox="0 0 38 29" style="enable-background:new 0 0 38 29;" xml:space="preserve">
<style type="text/css">
<!-- <![CDATA[
	.st0{clip-path:url(#SVGID_2_);}
	.st1{clip-path:url(#SVGID_2_);fill:#FFC83D;}
	.st2{clip-path:url(#SVGID_2_);fill:#D48C00;}
]]> -->
</style>
<g>
	<defs>
		<rect id="SVGID_1_" y="0.2" width="38" height="28.6"/>
	</defs>
	<clipPath id="SVGID_2_">
		<use xlink:href="#SVGID_1_"  style="overflow:visible;"/>
	</clipPath>
	<path class="st2" d="M23.3,6.7l-7.9,7.8c-1.3,1.3-3.4,1.3-4.6,0c-1.3-1.3-1.3-3.3,0-4.5l7.9-7.8C19.9,1,22,1,23.3,2.2
		S24.5,5.5,23.3,6.7"/>
	<path class="st1" d="M13.9,7.5L7,12.6h-6v15.1h20.5c0,0,3.4,0,3.4-5c0,0,2.6-0.8,2.6-4.2v-5l6,0c1.9,0,3.4-1.5,3.4-3.4
		c0-1.9-1.5-2.6-3.4-2.6h-9.8h-0.4"/>
	<rect x="22" y="12.4" class="st2" width="5.5" height="0.8"/>
	<rect x="22" y="17.3" class="st2" width="5.1" height="0.8"/>
	<rect x="21.1" y="21.4" class="st2" width="5.1" height="0.8"/>
	<path class="st0" d="M21.6,28.8H1.1c-0.6,0-1.1-0.5-1.1-1.1V12.6c0-0.6,0.5-1.1,1.1-1.1h5.6l7.3-6.3l3.9-3.9c1.7-1.7,4.4-1.7,6.1,0
		c0.8,0.8,1.3,1.9,1.3,3c0,0.4-0.1,0.8-0.2,1.2h8.4c2.5,0,4.5,2,4.5,4.4c0,2.4-2,4.4-4.5,4.4l-4.9,0v4c0,2.9-1.6,4.3-2.6,4.9
		C25.7,28.7,21.6,28.8,21.6,28.8 M2.1,26.7h19.4c0.2,0,2.3-0.2,2.3-4c0-0.5,0.3-0.9,0.7-1c0.2-0.1,1.8-0.7,1.8-3.2v-5
		c0-0.3,0.1-0.6,0.3-0.8c0.2-0.2,0.5-0.3,0.8-0.3h0l6,0c1.3,0,2.4-1,2.4-2.3c0-1.3-1.1-2.3-2.4-2.3H23.3c-0.4,0-0.8-0.2-1-0.6
		c-0.2-0.4-0.1-0.8,0.2-1.2c0,0,0.1-0.1,0.1-0.1c0.4-0.4,0.6-0.9,0.6-1.5c0-0.6-0.2-1.1-0.6-1.5c-0.9-0.9-2.3-0.8-3.1,0l-4,3.9
		l-7.6,6.6c-0.2,0.2-0.4,0.3-0.7,0.3H2.1V26.7z"/>
</g>
</svg>
