<?xml version="1.0" encoding="utf-8"?>
<!-- Generator: Adobe Illustrator 24.0.0, SVG Export Plug-In . SVG Version: 6.00 Build 0)  -->
<svg version="1.1" xmlns="http://www.w3.org/2000/svg" xmlns:xlink="http://www.w3.org/1999/xlink" x="0px"
              y="0px" width="35px" height="35px" viewBox="0 0 29 30" enable-background="new 0 0 29 30"
              xml:space="preserve">
              <path fill="#ff6666" d="M28.863,27.403l-7.297-7.086c1.754-2.103,2.813-4.804,2.813-7.75c0-6.685-5.438-12.123-12.121-12.123
          S0.137,5.883,0.137,12.567c0,6.683,5.438,12.12,12.121,12.12c2.657,0,5.108-0.869,7.108-2.324l7.407,7.192L28.863,27.403z
          M12.258,21.688c-5.029,0-9.121-4.091-9.121-9.12c0-5.03,4.092-9.123,9.121-9.123s9.121,4.093,9.121,9.123
          C21.379,17.597,17.287,21.688,12.258,21.688z"></path>
            </svg>
